<svg xmlns="http://www.w3.org/2000/svg" width="29.19" height="29.249" viewBox="0 0 29.19 29.249">
  <path id="Icon_zocial-github" data-name="Icon zocial-github" d="M0,14.415A14.079,14.079,0,0,1,1.17,8.741,14.127,14.127,0,0,1,8.921.99a14.345,14.345,0,0,1,11.348,0A14.249,14.249,0,0,1,28.02,8.741a14.345,14.345,0,0,1,0,11.348A14.355,14.355,0,0,1,20.269,27.9a14.345,14.345,0,0,1-11.348,0A14.23,14.23,0,0,1,1.17,20.089,14.079,14.079,0,0,1,0,14.415Zm2.281,0a11.9,11.9,0,0,0,2.457,7.371,13.149,13.149,0,0,0,6.347,4.534v-2.34a2.847,2.847,0,0,1,1.17-2.545,8.4,8.4,0,0,1-1.375-.2,6.911,6.911,0,0,1-2.545-.936q-2.662-1.609-2.662-5.82A5.259,5.259,0,0,1,7.137,10.73a4.921,4.921,0,0,1,.146-3.744h.585a2.406,2.406,0,0,1,.731.146,10.057,10.057,0,0,1,2.545,1.287,13.8,13.8,0,0,1,3.51-.468,14.134,14.134,0,0,1,3.539.468,12.461,12.461,0,0,1,2.135-1.17,3.171,3.171,0,0,1,1.345-.292l.351.029a5.108,5.108,0,0,1,.146,3.744,5.259,5.259,0,0,1,1.462,3.744,6.856,6.856,0,0,1-1.609,4.943,5.881,5.881,0,0,1-2.311,1.462,10.058,10.058,0,0,1-2.662.556,2.911,2.911,0,0,1,1.2,2.545v2.34a13.247,13.247,0,0,0,6.23-4.592,11.919,11.919,0,0,0,2.4-7.312,12.326,12.326,0,0,0-.965-4.8A12.444,12.444,0,0,0,14.6,2.1,12.439,12.439,0,0,0,9.8,3.1,12.86,12.86,0,0,0,5.879,5.7,13.568,13.568,0,0,0,3.247,9.618a12.326,12.326,0,0,0-.965,4.8Z" transform="translate(0 0.18)"/>
</svg>
