<svg xmlns="http://www.w3.org/2000/svg" width="35.986" height="22.497" viewBox="0 0 35.986 22.497">
  <path id="Icon_simple-behance" data-name="Icon simple-behance" d="M10.407,6.754a13.376,13.376,0,0,1,2.88.282,6.478,6.478,0,0,1,2.227.915,4.216,4.216,0,0,1,1.44,1.68,5.994,5.994,0,0,1,.51,2.6,4.881,4.881,0,0,1-.76,2.79,5.5,5.5,0,0,1-2.253,1.83A5.286,5.286,0,0,1,17.484,18.9a6.156,6.156,0,0,1,1,3.54,6.2,6.2,0,0,1-.615,2.9,5.551,5.551,0,0,1-1.74,2.025,7.635,7.635,0,0,1-2.505,1.15,10.973,10.973,0,0,1-2.865.381H0V6.765H10.407ZM25.41,25a3.914,3.914,0,0,0,2.841.965,3.917,3.917,0,0,0,2.3-.67,2.761,2.761,0,0,0,1.17-1.41H35.6a7.3,7.3,0,0,1-2.85,4.125,8.228,8.228,0,0,1-4.62,1.245,9.194,9.194,0,0,1-3.408-.6,7.421,7.421,0,0,1-2.58-1.71,7.651,7.651,0,0,1-1.615-2.655,9.842,9.842,0,0,1-.559-3.405,9.123,9.123,0,0,1,.6-3.345,7.786,7.786,0,0,1,4.284-4.476,8.037,8.037,0,0,1,3.33-.649,7.561,7.561,0,0,1,3.57.785,7.2,7.2,0,0,1,2.49,2.1,8.353,8.353,0,0,1,1.41,3.03,12.1,12.1,0,0,1,.315,3.57H24.434a4.546,4.546,0,0,0,1.065,3.1l-.12.045Zm-15.36.075a6.316,6.316,0,0,0,1.359-.139,3.478,3.478,0,0,0,1.144-.45,2.223,2.223,0,0,0,.78-.875,3.075,3.075,0,0,0,.285-1.44,2.911,2.911,0,0,0-.96-2.43,4.131,4.131,0,0,0-2.535-.72H4.86v6.075h5.19v-.045ZM30.46,16.6a3.3,3.3,0,0,0-2.486-.888,3.72,3.72,0,0,0-1.749.357,3.232,3.232,0,0,0-1.11.885,3.123,3.123,0,0,0-.588,1.125,5.258,5.258,0,0,0-.2,1.065h7.143a4.285,4.285,0,0,0-1.02-2.535v.015ZM9.78,15.675a3.493,3.493,0,0,0,2.137-.618,2.309,2.309,0,0,0,.831-2.007,2.826,2.826,0,0,0-.27-1.269,2.192,2.192,0,0,0-.75-.768,3.176,3.176,0,0,0-1.08-.385,6.639,6.639,0,0,0-1.26-.111H4.845v5.16H9.78ZM23.427,8.238h8.952v2.181H23.427V8.235Z" transform="translate(0 -6.755)"/>
</svg>
