<svg xmlns="http://www.w3.org/2000/svg" width="29.206" height="29.205" viewBox="0 0 29.206 29.205">
  <path id="Icon_awesome-linkedin-in" data-name="Icon awesome-linkedin-in" d="M6.537,29.206H.482V9.707H6.537ZM3.507,7.047a3.523,3.523,0,1,1,3.507-3.54A3.536,3.536,0,0,1,3.507,7.047ZM29.2,29.206H23.157V19.714c0-2.262-.046-5.163-3.148-5.163-3.148,0-3.63,2.458-3.63,5v9.655H10.33V9.707h5.807v2.66h.085a6.362,6.362,0,0,1,5.729-3.149c6.128,0,7.254,4.035,7.254,9.277V29.206Z" transform="translate(0 0)" fill="#0b0b0b"/>
</svg>
