<svg xmlns="http://www.w3.org/2000/svg" width="29.007" height="29" viewBox="0 0 29.007 29">
  <path id="Icon_awesome-instagram" data-name="Icon awesome-instagram" d="M14.5,9.3a7.435,7.435,0,1,0,7.435,7.435A7.423,7.423,0,0,0,14.5,9.3Zm0,12.269a4.834,4.834,0,1,1,4.834-4.834A4.843,4.843,0,0,1,14.5,21.572ZM23.975,9a1.734,1.734,0,1,1-1.734-1.734A1.73,1.73,0,0,1,23.975,9Zm4.924,1.76a8.582,8.582,0,0,0-2.343-6.076A8.639,8.639,0,0,0,20.481,2.34C18.086,2.2,10.91,2.2,8.516,2.34A8.626,8.626,0,0,0,2.439,4.676,8.61,8.61,0,0,0,.1,10.752c-.136,2.394-.136,9.571,0,11.965a8.582,8.582,0,0,0,2.343,6.076,8.65,8.65,0,0,0,6.076,2.343c2.394.136,9.571.136,11.965,0a8.582,8.582,0,0,0,6.076-2.343A8.639,8.639,0,0,0,28.9,22.717c.136-2.394.136-9.564,0-11.959ZM25.806,25.286a4.894,4.894,0,0,1-2.757,2.757c-1.909.757-6.439.582-8.548.582s-6.646.168-8.548-.582A4.894,4.894,0,0,1,3.2,25.286c-.757-1.909-.582-6.439-.582-8.548s-.168-6.646.582-8.548A4.894,4.894,0,0,1,5.953,5.433c1.909-.757,6.439-.582,8.548-.582s6.646-.168,8.548.582a4.894,4.894,0,0,1,2.757,2.757c.757,1.909.582,6.439.582,8.548S26.563,23.384,25.806,25.286Z" transform="translate(0.005 -2.238)" fill="#0a0909"/>
</svg>
