<svg xmlns="http://www.w3.org/2000/svg" width="28.604" height="23.248" viewBox="0 0 28.604 23.248">
  <path id="Icon_simple-twitter" data-name="Icon simple-twitter" d="M28.548,6.138a11.919,11.919,0,0,1-3.367.924,5.909,5.909,0,0,0,2.578-3.245,12.112,12.112,0,0,1-3.727,1.411,5.862,5.862,0,0,0-10.143,4,6,6,0,0,0,.151,1.34A16.607,16.607,0,0,1,1.955,4.459a5.747,5.747,0,0,0-.794,2.95,5.865,5.865,0,0,0,2.608,4.882,5.845,5.845,0,0,1-2.655-.734v.073a5.867,5.867,0,0,0,4.7,5.753,5.918,5.918,0,0,1-2.636.1,5.883,5.883,0,0,0,5.487,4.072,11.761,11.761,0,0,1-7.272,2.509A12.446,12.446,0,0,1,0,23.985a16.68,16.68,0,0,0,9.006,2.633c10.791,0,16.684-8.934,16.684-16.669,0-.249,0-.5-.018-.751A11.842,11.842,0,0,0,28.6,6.161l-.056-.024Z" transform="translate(0 -3.369)"/>
</svg>
