<svg xmlns="http://www.w3.org/2000/svg" viewBox="0 0 310.15 251.55"><g id="Layer_2" data-name="Layer 2"><g id="Layer_1-2" data-name="Layer 1"><path d="M309.07,154.15c-1.3,2.9-5.1,8-11.7,15.6-6.8,7.9-12.6,15.1-17.8,22.1l-1,1.3h-1.9a3.82,3.82,0,0,1-3.8,1.9c0,.1-.1.3-.1.4a10.73,10.73,0,0,1-.5,3.2,5.42,5.42,0,0,0-.2,1.5v2l-1.8.9a1.55,1.55,0,0,1-.6.3,9.76,9.76,0,0,1-2.2,2.6l-1.9,1.9-.9-.7a3.59,3.59,0,0,1-2.8,2.5,13.77,13.77,0,0,1-4.2,1.4,4.87,4.87,0,0,1-1.1.4,11.7,11.7,0,0,1-2,.5c-.1,0-.4.2-.9.4l-17.7,8.8,8.7-8.7a33.57,33.57,0,0,1-13.6-5c-5.8-3.6-10.6-9.9-14.7-19.3a78.37,78.37,0,0,1-6.1-17.8,70.52,70.52,0,0,1-1.5-14.1c0-1.6.1-3.2.2-4.7-.8.7-1.6,1.5-2.4,2.3a47.38,47.38,0,0,0-6.4,9.1l-.1.2c-3.3,4.9-7.8,10.7-13,17l-16.8,20.5c-5.6,6.8-10.9,12.8-15.7,18.1-7.8,8.2-9.9,9-10.7,9.3-2,.7-4.9.8-9.6.2a42.76,42.76,0,0,1-12.6-3.6,24.58,24.58,0,0,1-10.8-9.2c-3-4.5-3.4-10.3-1.2-17.6,1.8-6,3.9-15,6.1-26.7s4.9-24.4,8.1-37.8c2.6-10.8,5.3-21.2,8.3-31.4-1.4,2.6-2.8,5.3-4.3,8.1-5.1,9.5-11,20.7-17.5,33.1-13,25-23.9,44.3-33.3,59-11.3,17.7-14.6,24.5-15.3,27.1-.6,4.1-1.5,8-4.6,8.6-1.1.3-5.2,2.4-6.6,3.1-4.7,2.4-5.7,3.6-5.7,3.6a13,13,0,0,1-6.1,4.5,43.82,43.82,0,0,1-8.3,2.4,6.6,6.6,0,0,1-1.4.1c-3.6,0-7.4-2.6-11.5-7.8a12.94,12.94,0,0,0-5.3-4.1,20.92,20.92,0,0,1-7.7-5.6c-2.5-2.8-3.9-6.9-4.4-12.1-.6-4.9.4-11.7,3-21.2,2.3-8.8,5.3-18.9,9.1-30.7,3.8-11.3,6.9-21.9,9.8-31.7,3-10.2,5.1-18.3,6.5-25,1.1-5.4,1-7.7.9-8.5-5-2.4-9.1-3.6-12.4-3.6-1.3,0-4.2-.5-5-5.3a14.29,14.29,0,0,1,.5-6.5c.9-2.8,7.4-9.1,12.2-8.4a113.61,113.61,0,0,1,24.3,5.3c7.6,2.6,13.5,6.6,17.8,11.9,4.5,5.7,5.9,13.1,4.2,21.9-1.5,8.5-2.8,14.1-3.6,17.4l-6.4,25.7c4.5-8.1,9.1-16.3,13.7-24.4,6.7-12.6,13.9-25.2,21.2-37.3s12.9-21.5,16.7-28.3a197.17,197.17,0,0,1,16-23.4c6.1-7.9,12.6-15.9,19.4-23.8,6.3-7.3,12-13.5,16.9-18.5,6.4-6.4,9.4-8.3,12-7.3a22.19,22.19,0,0,1,7.7,3.3,6.28,6.28,0,0,1,3.1,4.6,6.46,6.46,0,0,1-2.3,5.4l-8.5,8.6a5.61,5.61,0,0,1,1.2,2l.1-.1c1.8-1.1,3.7,0,4.5.5l.4.2.9.9a10.24,10.24,0,0,1,3.7,5.2,4.14,4.14,0,0,1,1.6-.2h1.2l.9.7c6.6,5.5,9.9,10.6,9.9,15.6v.3l-.1.3c-.6,2.9-2.9,9.8-6.4,19-3.7,10.3-8,21.4-12,31.8-2.1,5.5-4.2,10.8-6.3,16-2.1,5.4-4.2,10.6-6.2,15.7-3.9,9.7-6,16-6.3,18.6l-.1.3q-1,4.65-2.4,9.6c4.9-6.8,9.8-13.6,15.1-20.6,5.4-7.3,11.3-14.7,18.7-23.2,7-7.7,11.9-11.2,15.7-11.3,6.3-.5,12.7.7,19.6,3.6a22.26,22.26,0,0,1,13.5,16.5c.6,3.3.7,8.2.4,15-.2,6-.7,12.7-1.4,20.3a153.55,153.55,0,0,0-1.1,18.2c0,4.1.4,5.8.6,6.3l.1.1c.3.1,1.9.4,6.7-1.2a73.87,73.87,0,0,0,16.1-7.4,95.91,95.91,0,0,0,18-13.8,83.22,83.22,0,0,0,15.1-20.3l2.1-3.7,6,6C311.47,147.85,310.27,152.05,309.07,154.15Z"/></g></g></svg>