<?xml version="1.0" encoding="utf-8"?>
<!-- Generator: Adobe Illustrator 24.2.0, SVG Export Plug-In . SVG Version: 6.00 Build 0)  -->
<svg version="1.1" id="Layer_1" xmlns="http://www.w3.org/2000/svg" xmlns:xlink="http://www.w3.org/1999/xlink" x="0px" y="0px"
	 viewBox="0 0 1200 800" style="enable-background:new 0 0 1200 800;" xml:space="preserve">
<style type="text/css">
	.st0{fill:#FFC609;}
</style>
<g>
	<g>
		<path d="M556.6,476.1h-15.4V337.6h-1.8l-40.7,115.3h-13.6l-40.9-115.3h-1.8v138.5h-15.2V323.9h27.5l37.1,106.9l37.3-106.9h27.5
			V476.1z"/>
		<path d="M654.5,436.3h-51.9l-10.1,39.8h-16.1l41.4-152.2h21.2l41.4,152.2h-15.9L654.5,436.3z M651.4,424.3l-22.1-86.7h-1.6
			l-21.9,86.7H651.4z"/>
		<path d="M781,337.2v28.5h-15.6v-22.6l-10.1-7.2h-34l-10.3,7.2v113.4l10.3,7.4h34l10.1-7.4v-51.4h-27V393H781v69.8l-18.8,13.3
			h-48.1l-18.8-13.3V337.2l18.8-13.3h48.1L781,337.2z"/>
		<path d="M874,436.3h-51.9l-10.1,39.8H796l41.4-152.2h21.2l41.4,152.2h-15.9L874,436.3z M870.9,424.3l-22.1-86.7h-1.6l-21.9,86.7
			H870.9z"/>
		<path d="M1016.9,323.9v152.2h-22.6l-58.3-132.4h-1.3v132.4h-14.5V323.9h23l57.4,130.9h1.6V323.9H1016.9z"/>
		<path d="M1039.7,471.7v-7l5.6-4.2h7.2l5.6,4.2v7l-5.6,4.4h-7.2L1039.7,471.7z"/>
	</g>
	<g>
		<path class="st0" d="M287.8,476.1h-28.4v-117h-1.6l-31.7,96.1h-22.1l-31.7-96.1h-1.8v117H142V323.9h44.5l28.4,88.3l28.4-88.3h44.5
			V476.1z"/>
		<path class="st0" d="M407.6,337.8V462l-19.7,14.1h-55.7L312.6,462V337.8l19.7-13.9h55.7L407.6,337.8z M373.1,344.3H347l-5.4,4
			v102.9l5.4,4h26.2l5.4-4V348.3L373.1,344.3z"/>
	</g>
</g>
</svg>
