<?xml version="1.0" encoding="utf-8"?>
<!-- Generator: Adobe Illustrator 19.2.0, SVG Export Plug-In . SVG Version: 6.00 Build 0)  -->
<svg version="1.1" id="Layer_1"
	xmlns="http://www.w3.org/2000/svg"
	xmlns:xlink="http://www.w3.org/1999/xlink" x="0px" y="0px" viewBox="0 0 1200 800" style="enable-background:new 0 0 1200 800;" xml:space="preserve">
	<style type="text/css">
	.st0{fill:#020202;}
	.st1{fill:none;stroke:#020202;stroke-width:30;stroke-miterlimit:20;}
			<!-- path {
      fill: #ccc;
    }
    @media (prefers-color-scheme: dark) {
      path {
          fill: #fff;

      }
    } -->
	</style>
	<path class="st0" d="M750.7,419.7c-1.3,2.9-5.1,8-11.7,15.6c-6.8,7.9-12.6,15.1-17.8,22.1l-1,1.3h-1.9c-0.9,1.8-2.7,1.9-3.8,1.9
	c0,0.1-0.1,0.3-0.1,0.4c0,1.2-0.2,2.2-0.5,3.2c-0.1,0.4-0.2,0.8-0.2,1.5v2l-1.8,0.9c-0.3,0.2-0.5,0.3-0.6,0.3
	c-0.3,0.6-0.9,1.4-2.2,2.6l-1.9,1.9l-0.9-0.7c-0.4,1.3-1.4,2.2-2.8,2.5c-1.5,0.8-3,1.2-4.2,1.4c-0.4,0.2-0.7,0.3-1.1,0.4
	c-0.6,0.2-1.3,0.4-2,0.5c-0.1,0-0.4,0.2-0.9,0.4l-17.7,8.8l8.7-8.7c-4.7-0.6-9.3-2.3-13.6-5c-5.8-3.6-10.6-9.9-14.7-19.3
	c-2.9-6.2-5-12.2-6.1-17.8c-1-4.9-1.5-9.6-1.5-14.1c0-1.6,0.1-3.2,0.2-4.7c-0.8,0.7-1.6,1.5-2.4,2.3c-1.9,1.9-4,5-6.4,9.1l-0.1,0.2
	c-3.3,4.9-7.8,10.7-13,17l-16.8,20.5c-5.6,6.8-10.9,12.8-15.7,18.1c-7.8,8.2-9.9,9-10.7,9.3c-2,0.7-4.9,0.8-9.6,0.2
	c-4.5-0.6-8.8-1.8-12.6-3.6c-4.4-1.9-8-5-10.8-9.2c-3-4.5-3.4-10.3-1.2-17.6c1.8-6,3.9-15,6.1-26.7c2.2-11.6,4.9-24.4,8.1-37.8
	c2.6-10.8,5.3-21.2,8.3-31.4c-1.4,2.6-2.8,5.3-4.3,8.1c-5.1,9.5-11,20.7-17.5,33.1c-13,25-23.9,44.3-33.3,59
	c-11.3,17.7-14.6,24.5-15.3,27.1c-0.6,4.1-1.5,8-4.6,8.6c-1.1,0.3-5.2,2.4-6.6,3.1c-4.7,2.4-5.7,3.6-5.7,3.6
	c-1.2,1.8-3.2,3.3-6.1,4.5c-2.4,1-4.9,1.7-8.3,2.4c-0.5,0.1-0.9,0.1-1.4,0.1c-3.6,0-7.4-2.6-11.5-7.8c-1.5-1.9-3.3-3.3-5.3-4.1
	c-2.9-1.2-5.5-3.1-7.7-5.6c-2.5-2.8-3.9-6.9-4.4-12.1c-0.6-4.9,0.4-11.7,3-21.2c2.3-8.8,5.3-18.9,9.1-30.7
	c3.8-11.3,6.9-21.9,9.8-31.7c3-10.2,5.1-18.3,6.5-25c1.1-5.4,1-7.7,0.9-8.5c-5-2.4-9.1-3.6-12.4-3.6c-1.3,0-4.2-0.5-5-5.3
	c-0.3-2.2-0.2-4.4,0.5-6.5c0.9-2.8,7.4-9.1,12.2-8.4c9.1,1.1,17.3,2.8,24.3,5.3c7.6,2.6,13.5,6.6,17.8,11.9
	c4.5,5.7,5.9,13.1,4.2,21.9c-1.5,8.5-2.8,14.1-3.6,17.4l-6.4,25.7c4.5-8.1,9.1-16.3,13.7-24.4c6.7-12.6,13.9-25.2,21.2-37.3
	c7.2-12.1,12.9-21.5,16.7-28.3c3.9-6.9,9.3-14.8,16-23.4c6.1-7.9,12.6-15.9,19.4-23.8c6.3-7.3,12-13.5,16.9-18.5
	c6.4-6.4,9.4-8.3,12-7.3c2.9,0.7,5.4,1.7,7.7,3.3c2.3,1.5,3,3.4,3.1,4.6c0.1,1.3-0.1,3.3-2.3,5.4l-8.5,8.6c0.5,0.5,0.9,1.2,1.2,2
	l0.1-0.1c1.8-1.1,3.7,0,4.5,0.5l0.4,0.2l0.9,0.9c1.8,1.3,3,3.1,3.7,5.2c0.5-0.2,1-0.2,1.6-0.2h1.2l0.9,0.7
	c6.6,5.5,9.9,10.6,9.9,15.6v0.3l-0.1,0.3c-0.6,2.9-2.9,9.8-6.4,19c-3.7,10.3-8,21.4-12,31.8c-2.1,5.5-4.2,10.8-6.3,16
	c-2.1,5.4-4.2,10.6-6.2,15.7c-3.9,9.7-6,16-6.3,18.6l-0.1,0.3c-0.7,3.1-1.5,6.3-2.4,9.6c4.9-6.8,9.8-13.6,15.1-20.6
	c5.4-7.3,11.3-14.7,18.7-23.2c7-7.7,11.9-11.2,15.7-11.3c6.3-0.5,12.7,0.7,19.6,3.6c7.2,3.1,11.9,8.8,13.5,16.5
	c0.6,3.3,0.7,8.2,0.4,15c-0.2,6-0.7,12.7-1.4,20.3c-0.8,6.7-1.1,12.8-1.1,18.2c0,4.1,0.4,5.8,0.6,6.3l0.1,0.1
	c0.3,0.1,1.9,0.4,6.7-1.2c5.2-1.6,10.6-4.1,16.1-7.4c6.3-3.7,12.3-8.3,18-13.8c5.7-5.5,10.6-12.1,15.1-20.3l2.1-3.7l6,6
	C753.1,413.4,751.9,417.6,750.7,419.7z"/>
	<path class="st1" d="M876.6,438.3c0-9.9-0.1-19.9-0.1-29.8c0-9.5,0-19,0.1-28.5c0.1-23.4,0.1-47.7-0.2-71.5
	c-0.1-8.6-1.6-17-4.1-24.3c-7.2-20-21.6-35.1-44.2-46.3c-24.3-12.1-48.6-25.1-72.1-37.6c-6.4-3.4-12.9-6.9-19.3-10.3
	c-9.8-5.2-19.7-10.5-29.3-15.7c-17.6-9.5-35.9-19.4-54-28.6c-11.5-6-22.7-10.2-33.1-12.5c-22.7-4.8-45.8-0.1-70.6,14.3
	c-14.1,8.2-29,16-43.3,23.5c-3.8,2-7.7,4-11.5,6c-11.3,6-22.9,12-34.1,17.8c-11.2,5.8-22.8,11.8-34.1,17.9
	c-15.3,8.1-30.8,16.4-45.7,24.6l-8.1,4.4c-28.3,15.3-42.8,38.3-42.9,68.1c-0.3,66.5-0.1,133.7,0,198.8c0,4.7,0.2,11.7,2.2,18.1
	c7,22.8,20.8,39.6,41.1,49.8c20,10.2,40.2,21,59.7,31.4c5.6,3,11.2,6,16.9,9c10.9,5.7,21.8,11.4,32.7,17.2
	c24.9,13,50.6,26.5,75.7,40.3c14.5,7.9,29.4,11.9,44.4,11.9c9.2,0,18.5-1.5,27.8-4.5c10.8-3.5,21.1-9,31.1-14.3
	c2.7-1.4,5.4-2.9,8.1-4.2c11.3-5.8,22.6-12,33.6-17.9c6.8-3.7,13.5-7.3,20.3-10.9l72.2-38c5.9-3.1,11.8-6.2,17.6-9.3
	c5.8-3.1,11.7-6.2,17.5-9.2c30-15.3,45.4-38.8,45.6-69.7C876.7,484.6,876.6,461.1,876.6,438.3z M870,507.9
	c-0.2,28.8-14,49.8-42.2,64.1c-5.9,3.1-11.7,6.2-17.6,9.3c-5.9,3.1-11.7,6.2-17.6,9.3l-72.2,38c-6.8,3.6-13.6,7.3-20.4,11
	c-11,5.9-22.3,12-33.5,17.8c-2.7,1.4-5.4,2.8-8.1,4.3c-9.7,5.2-19.7,10.5-30,13.8c-22.7,7.3-45.3,5-67.1-6.9
	c-25.1-13.8-50.8-27.3-75.8-40.3c-10.9-5.7-21.8-11.4-32.7-17.1c-5.6-3-11.2-6-16.8-9c-19.6-10.5-39.8-21.3-59.9-31.5
	c-19-9.5-31.4-24.6-37.9-45.9c-1.7-5.5-1.9-11.9-1.9-16.2c-0.1-65-0.3-132.3,0-198.7c0.1-27.7,13-48.1,39.5-62.5l8.1-4.4
	c14.9-8.1,30.3-16.5,45.6-24.5c11.3-6,22.9-12,34.1-17.8c11.2-5.8,22.8-11.9,34.1-17.9c3.8-2,7.7-4,11.5-6
	c14.4-7.5,29.3-15.3,43.5-23.6c17.6-10.2,34.1-15.2,50.2-15.2c5.3,0,10.6,0.6,15.8,1.7c9.8,2.1,20.4,6.1,31.5,11.9
	c18.1,9.2,36.3,19,53.9,28.5c9.6,5.2,19.5,10.5,29.3,15.7c6.4,3.4,12.9,6.9,19.3,10.3c23.6,12.6,47.9,25.6,72.3,37.7
	c21.3,10.6,34.3,24.2,41,42.7c2.3,6.7,3.6,14.4,3.8,22.3c0.3,23.8,0.2,48,0.2,71.4c0,9.5-0.1,19-0.1,28.5c0,9.9,0,19.9,0.1,29.8
	C870.2,461,870.3,484.6,870,507.9z"/>
	<path d="M748.7,408.8l-6-6l-2.1,3.7c-4.5,8.2-9.5,14.9-15.1,20.3c-5.7,5.4-11.7,10.1-18,13.8c-5.5,3.3-10.9,5.8-16.1,7.4
	c-4.9,1.5-6.4,1.2-6.7,1.2l-0.1-0.1c-0.2-0.6-0.6-2.3-0.6-6.3c0-5.4,0.4-11.6,1.1-18.2c0.7-7.6,1.2-14.2,1.4-20.3
	c0.3-6.8,0.1-11.7-0.4-15c-1.6-7.7-6.3-13.4-13.5-16.5c-6.9-2.9-13.3-4.1-19.6-3.6c-3.8,0.1-8.7,3.6-15.7,11.3
	c-7.4,8.5-13.3,15.9-18.7,23.2c-5.3,7-10.2,13.8-15.1,20.6c0.9-3.3,1.7-6.5,2.4-9.6l0.1-0.3c0.3-2.6,2.5-8.9,6.3-18.6
	c2-5.1,4-10.3,6.2-15.7c2-5.2,4.1-10.5,6.3-16c4.1-10.4,8.3-21.5,12-31.8c3.5-9.2,5.8-16.1,6.4-19l0.1-0.3v-0.3
	c0-5-3.2-10.2-9.9-15.6l-0.9-0.7h-1.2c-0.6,0-1.2,0.1-1.6,0.2c-0.7-2.1-2-3.9-3.7-5.2l-0.9-0.9l-0.4-0.2c-0.8-0.5-2.7-1.5-4.5-0.5
	l-0.1,0.1c-0.3-0.8-0.7-1.5-1.2-2l8.5-8.6c2.1-2.1,2.4-4.1,2.3-5.4c-0.1-1.3-0.8-3.1-3.1-4.6c-2.3-1.6-4.8-2.7-7.7-3.3
	c-2.5-1-5.5,0.9-12,7.3c-4.9,4.9-10.6,11.1-16.9,18.5c-6.8,7.9-13.3,15.9-19.4,23.8c-6.7,8.7-12.1,16.5-16,23.4
	c-3.9,6.8-9.5,16.3-16.7,28.3c-7.3,12.1-14.4,24.7-21.2,37.3c-4.6,8.1-9.2,16.2-13.7,24.4l6.4-25.7c0.8-3.2,2.1-8.9,3.6-17.4
	c1.7-8.9,0.3-16.2-4.2-21.9c-4.3-5.3-10.3-9.3-17.8-11.9c-7-2.4-15.2-4.2-24.3-5.3c-4.8-0.8-11.4,5.6-12.2,8.4
	c-0.7,2.1-0.8,4.4-0.5,6.5c0.7,4.8,3.7,5.3,5,5.3c3.2,0,7.4,1.2,12.4,3.6c0.1,0.8,0.2,3.1-0.9,8.5c-1.3,6.6-3.5,14.8-6.5,25
	c-2.9,9.8-6.1,20.3-9.8,31.7c-3.8,11.8-6.8,21.9-9.1,30.7c-2.6,9.5-3.6,16.3-3,21.2c0.4,5.2,1.9,9.3,4.4,12.1
	c2.2,2.5,4.8,4.3,7.7,5.6c2,0.8,3.7,2.2,5.3,4.1c4.1,5.2,7.9,7.8,11.5,7.8c0.5,0,1,0,1.4-0.1c3.4-0.7,6-1.4,8.3-2.4
	c2.9-1.2,5-2.7,6.1-4.5c0,0,0.9-1.3,5.7-3.6c1.4-0.7,5.5-2.8,6.6-3.1c3.1-0.6,4-4.5,4.6-8.6c0.7-2.6,4-9.4,15.3-27.1
	c9.4-14.7,20.3-34,33.3-59c6.6-12.5,12.5-23.6,17.5-33.1c1.5-2.8,2.9-5.5,4.3-8.1c-3,10.2-5.8,20.6-8.3,31.4
	c-3.2,13.4-5.9,26.1-8.1,37.8c-2.2,11.7-4.2,20.7-6.1,26.7c-2.2,7.3-1.8,13.1,1.2,17.6c2.8,4.2,6.4,7.3,10.8,9.2
	c3.8,1.8,8.1,3,12.6,3.6c4.6,0.6,7.6,0.6,9.6-0.2c0.9-0.3,2.9-1.1,10.7-9.3c4.8-5.2,10.1-11.3,15.7-18.1l16.8-20.5
	c5.2-6.3,9.7-12.2,13-17l0.1-0.2c2.3-4.2,4.5-7.2,6.4-9.1c0.8-0.8,1.6-1.5,2.4-2.3c-0.1,1.5-0.2,3.1-0.2,4.7c0,4.5,0.5,9.2,1.5,14.1
	c1.1,5.6,3.2,11.6,6.1,17.8c4.1,9.4,8.9,15.7,14.7,19.3c4.3,2.8,8.8,4.4,13.6,5l-8.7,8.7l17.7-8.8c0.6-0.3,0.8-0.4,0.9-0.4
	c0.7,0,1.4-0.2,2-0.5c0.3-0.1,0.7-0.2,1.1-0.4c1.3-0.2,2.7-0.7,4.2-1.4c1.3-0.3,2.3-1.3,2.8-2.5l0.9,0.7l1.9-1.9
	c1.3-1.3,1.9-2.1,2.2-2.6c0.1-0.1,0.2-0.2,0.6-0.3l1.8-0.9v-2c0-0.7,0.1-1.2,0.2-1.5c0.3-1,0.5-2,0.5-3.2c0.1-0.2,0.1-0.3,0.1-0.4
	c1.2,0.1,2.9-0.1,3.8-1.9h1.9l1-1.3c5.1-7,10.9-14.2,17.8-22.1c6.6-7.6,10.4-12.7,11.7-15.6C751.9,417.6,753.1,413.4,748.7,408.8z
	 M745.1,416.7l-0.2,0.4c-0.4,1-2.3,4.4-10.7,14.1c-6.5,7.6-12.1,14.5-17.1,21.2c-1.7,0.1-3.7,0.5-4.7,2c-1.6,0.5-3.4,1.9-4.2,5.7
	l-0.1,0.3v0.3c0,0.7-0.1,1.2-0.2,1.5c-0.2,0.6-0.3,1.2-0.4,1.7c-0.6,0.4-1,0.9-1.4,1.5l-0.1,0.1c-0.7-0.1-1.3-0.1-1.9,0
	c-1,0.2-1.8,0.8-2.4,1.5c-1.4-0.1-2.7,0.4-3.7,1.6c-0.6,0.6-1.1,1.2-1.5,1.9c-0.6,0-1-0.1-1.4-0.2c-1.9-0.6-3.7-0.2-5.1,1.2
	c0,0-0.1,0-0.1,0.1c-0.4,0.1-0.7,0.3-1,0.5c-4.4-0.2-8.7-1.6-12.8-4.2c-4.6-2.9-8.7-8.4-12.2-16.6c-2.7-5.8-4.6-11.3-5.6-16.4
	c-0.9-4.5-1.3-8.8-1.3-12.8c0-3.9,0.4-7.7,1.3-10.8l1.1-4h-4.2c-1.5,0-2.8,0.9-5.5,2.8c-2,1.5-4,3.2-5.9,5.1
	c-2.3,2.3-4.7,5.7-7.4,10.4c-3.2,4.7-7.5,10.3-12.6,16.4l-16.8,20.5c-5.5,6.7-10.8,12.7-15.5,17.7c-6.3,6.7-8.1,7.6-8.2,7.6
	c-0.2,0.1-1.6,0.5-6.5-0.2c-3.9-0.5-7.5-1.5-10.8-3.1c-3.3-1.4-6-3.7-8.1-6.9c-1.9-2.9-2-6.9-0.4-12.3c1.9-6.3,4-15.3,6.2-27.4
	c2.2-11.5,4.9-24.1,8-37.5c3.3-13.7,6.8-26.7,10.8-39.6c4-12.8,8.7-24.2,14-33.7l-5.5-3.2c-4.8,7.8-9.1,15.2-13.3,22.8
	c-2.2,4.1-4.6,8.7-7.3,13.7c-2,3.8-4.2,7.8-6.5,12.1c-5.1,9.5-11,20.7-17.5,33.2c-12.9,24.8-23.7,43.9-33,58.5
	c-13,20.4-15.4,26.3-16.1,29.1l-0.1,0.4c-0.3,2.1-0.6,3.2-0.8,3.8c-1.3,0.5-3.3,1.4-6.9,3.3c-6.4,3.2-7.7,5.2-8.1,5.8
	c-0.2,0.2-0.9,1.1-3.3,2.1c-1.9,0.8-4.1,1.4-7,2c-0.2,0-2.3,0.2-6.7-5.4c-2.2-2.8-4.8-4.8-7.8-6.1c-2.1-0.9-3.8-2.1-5.4-3.9
	c-1-1.2-2.4-3.6-2.8-8.5c-0.4-4.1,0.5-10.3,2.9-18.9c2.3-8.8,5.3-18.7,9-30.4c3.8-11.4,7-22,9.9-31.8c3.1-10.4,5.2-18.7,6.6-25.5
	c1.9-9,1.5-13.2-1.4-15l-0.3-0.2c-5.6-2.8-10.5-4.4-14.7-4.6c-0.2-1.1-0.1-2.3,0.2-3.4c0.8-1.3,4-3.9,5.2-4.1l0.1,0
	c8.7,1,16.4,2.7,23,5c6.4,2.2,11.4,5.5,14.9,9.8c3.3,4.2,4.3,9.7,2.9,16.8c-1.4,8.3-2.7,13.8-3.5,16.9l-18.5,74l12-22.1
	c8.3-15.2,16.9-30.6,25.6-46c6.7-12.6,13.8-25,21-37.1c7.3-12.1,12.9-21.6,16.8-28.5c3.7-6.6,9-14.2,15.5-22.7
	c6-7.8,12.5-15.7,19.2-23.5c6.2-7.2,11.8-13.3,16.6-18.1c3.8-3.8,5.6-5.1,6.3-5.5c2,0.5,3.7,1.2,5.2,2.3l0.1,0.1c0,0,0,0,0,0
	c-0.1,0.1-0.1,0.1-0.2,0.2l-7.9,7.9c-2.5,0.4-4.4,1.9-5.1,4.1c-1,2.1-0.7,3.7,0.8,4.8c0.2,0.1,1.2,0.8,2.5,0.6
	c-0.3,1.1-0.1,2,0.1,2.4c1,2.5,4,2.5,5.6,2.5h0.4l0.4-0.1c0.7-0.2,1.5-0.4,2.2-0.7l0.2,0.2c0.9,0.6,1.4,1.5,1.7,2.6
	c0.4,1.6,1.2,3.5,3,4.3c0.9,0.4,1.9,0.5,2.9,0.2c0.4,0,0.7-0.1,1-0.2c3.8,3.4,5.9,6.6,6.1,9.2c-0.5,2.3-2.4,8-6.1,17.8
	c-3.7,10.3-7.9,21.3-12,31.7c-2.1,5.5-4.2,10.8-6.3,16c-2.1,5.4-4.2,10.7-6.2,15.7c-4.1,10.3-6.2,16.6-6.7,19.9
	c-1.2,5.2-2.7,10.6-4.3,16.1c-2,6.9-3.2,11-3.6,13.1l6.1,1.7c0.3-0.7,2-3.5,8.3-12.7c5.7-8,11.3-15.8,17.5-24
	c5.3-7.2,11.1-14.5,18.4-22.8c8.1-8.9,10.8-9.2,11.1-9.2l0.3,0c5.3-0.5,10.7,0.6,16.6,3.1c5.4,2.3,8.6,6.2,9.8,11.8
	c0.5,2.7,0.6,7.3,0.3,13.5c-0.2,5.9-0.7,12.4-1.4,19.8c-0.8,6.9-1.2,13.2-1.2,18.9c0,5.1,0.5,10.5,3.9,12c2.4,1.4,6.1,1.2,11.9-0.6
	c5.6-1.8,11.5-4.5,17.4-8c6.7-4,13.1-8.9,19.1-14.7c5.3-5.1,10-11,14.2-18.2C746,415.2,745.5,416.1,745.1,416.7z M748.7,408.8l-6-6
	l-2.1,3.7c-4.5,8.2-9.5,14.9-15.1,20.3c-5.7,5.4-11.7,10.1-18,13.8c-5.5,3.3-10.9,5.8-16.1,7.4c-4.9,1.5-6.4,1.2-6.7,1.2l-0.1-0.1
	c-0.2-0.6-0.6-2.3-0.6-6.3c0-5.4,0.4-11.6,1.1-18.2c0.7-7.6,1.2-14.2,1.4-20.3c0.3-6.8,0.1-11.7-0.4-15c-1.6-7.7-6.3-13.4-13.5-16.5
	c-6.9-2.9-13.3-4.1-19.6-3.6c-3.8,0.1-8.7,3.6-15.7,11.3c-7.4,8.5-13.3,15.9-18.7,23.2c-5.3,7-10.2,13.8-15.1,20.6
	c0.9-3.3,1.7-6.5,2.4-9.6l0.1-0.3c0.3-2.6,2.5-8.9,6.3-18.6c2-5.1,4-10.3,6.2-15.7c2-5.2,4.1-10.5,6.3-16c4.1-10.4,8.3-21.5,12-31.8
	c3.5-9.2,5.8-16.1,6.4-19l0.1-0.3v-0.3c0-5-3.2-10.2-9.9-15.6l-0.9-0.7h-1.2c-0.6,0-1.2,0.1-1.6,0.2c-0.7-2.1-2-3.9-3.7-5.2
	l-0.9-0.9l-0.4-0.2c-0.8-0.5-2.7-1.5-4.5-0.5l-0.1,0.1c-0.3-0.8-0.7-1.5-1.2-2l8.5-8.6c2.1-2.1,2.4-4.1,2.3-5.4
	c-0.1-1.3-0.8-3.1-3.1-4.6c-2.3-1.6-4.8-2.7-7.7-3.3c-2.5-1-5.5,0.9-12,7.3c-4.9,4.9-10.6,11.1-16.9,18.5
	c-6.8,7.9-13.3,15.9-19.4,23.8c-6.7,8.7-12.1,16.5-16,23.4c-3.9,6.8-9.5,16.3-16.7,28.3c-7.3,12.1-14.4,24.7-21.2,37.3
	c-4.6,8.1-9.2,16.2-13.7,24.4l6.4-25.7c0.8-3.2,2.1-8.9,3.6-17.4c1.7-8.9,0.3-16.2-4.2-21.9c-4.3-5.3-10.3-9.3-17.8-11.9
	c-7-2.4-15.2-4.2-24.3-5.3c-4.8-0.8-11.4,5.6-12.2,8.4c-0.7,2.1-0.8,4.4-0.5,6.5c0.7,4.8,3.7,5.3,5,5.3c3.2,0,7.4,1.2,12.4,3.6
	c0.1,0.8,0.2,3.1-0.9,8.5c-1.3,6.6-3.5,14.8-6.5,25c-2.9,9.8-6.1,20.3-9.8,31.7c-3.8,11.8-6.8,21.9-9.1,30.7
	c-2.6,9.5-3.6,16.3-3,21.2c0.4,5.2,1.9,9.3,4.4,12.1c2.2,2.5,4.8,4.3,7.7,5.6c2,0.8,3.7,2.2,5.3,4.1c4.1,5.2,7.9,7.8,11.5,7.8
	c0.5,0,1,0,1.4-0.1c3.4-0.7,6-1.4,8.3-2.4c2.9-1.2,5-2.7,6.1-4.5c0,0,0.9-1.3,5.7-3.6c1.4-0.7,5.5-2.8,6.6-3.1
	c3.1-0.6,4-4.5,4.6-8.6c0.7-2.6,4-9.4,15.3-27.1c9.4-14.7,20.3-34,33.3-59c6.6-12.5,12.5-23.6,17.5-33.1c1.5-2.8,2.9-5.5,4.3-8.1
	c-3,10.2-5.8,20.6-8.3,31.4c-3.2,13.4-5.9,26.1-8.1,37.8c-2.2,11.7-4.2,20.7-6.1,26.7c-2.2,7.3-1.8,13.1,1.2,17.6
	c2.8,4.2,6.4,7.3,10.8,9.2c3.8,1.8,8.1,3,12.6,3.6c4.6,0.6,7.6,0.6,9.6-0.2c0.9-0.3,2.9-1.1,10.7-9.3c4.8-5.2,10.1-11.3,15.7-18.1
	l16.8-20.5c5.2-6.3,9.7-12.2,13-17l0.1-0.2c2.3-4.2,4.5-7.2,6.4-9.1c0.8-0.8,1.6-1.5,2.4-2.3c-0.1,1.5-0.2,3.1-0.2,4.7
	c0,4.5,0.5,9.2,1.5,14.1c1.1,5.6,3.2,11.6,6.1,17.8c4.1,9.4,8.9,15.7,14.7,19.3c4.3,2.8,8.8,4.4,13.6,5l-8.7,8.7l17.7-8.8
	c0.6-0.3,0.8-0.4,0.9-0.4c0.7,0,1.4-0.2,2-0.5c0.3-0.1,0.7-0.2,1.1-0.4c1.3-0.2,2.7-0.7,4.2-1.4c1.3-0.3,2.3-1.3,2.8-2.5l0.9,0.7
	l1.9-1.9c1.3-1.3,1.9-2.1,2.2-2.6c0.1-0.1,0.2-0.2,0.6-0.3l1.8-0.9v-2c0-0.7,0.1-1.2,0.2-1.5c0.3-1,0.5-2,0.5-3.2
	c0.1-0.2,0.1-0.3,0.1-0.4c1.2,0.1,2.9-0.1,3.8-1.9h1.9l1-1.3c5.1-7,10.9-14.2,17.8-22.1c6.6-7.6,10.4-12.7,11.7-15.6
	C751.9,417.6,753.1,413.4,748.7,408.8z M745.1,416.7l-0.2,0.4c-0.4,1-2.3,4.4-10.7,14.1c-6.5,7.6-12.1,14.5-17.1,21.2
	c-1.7,0.1-3.7,0.5-4.7,2c-1.6,0.5-3.4,1.9-4.2,5.7l-0.1,0.3v0.3c0,0.7-0.1,1.2-0.2,1.5c-0.2,0.6-0.3,1.2-0.4,1.7
	c-0.6,0.4-1,0.9-1.4,1.5l-0.1,0.1c-0.7-0.1-1.3-0.1-1.9,0c-1,0.2-1.8,0.8-2.4,1.5c-1.4-0.1-2.7,0.4-3.7,1.6
	c-0.6,0.6-1.1,1.2-1.5,1.9c-0.6,0-1-0.1-1.4-0.2c-1.9-0.6-3.7-0.2-5.1,1.2c0,0-0.1,0-0.1,0.1c-0.4,0.1-0.7,0.3-1,0.5
	c-4.4-0.2-8.7-1.6-12.8-4.2c-4.6-2.9-8.7-8.4-12.2-16.6c-2.7-5.8-4.6-11.3-5.6-16.4c-0.9-4.5-1.3-8.8-1.3-12.8
	c0-3.9,0.4-7.7,1.3-10.8l1.1-4h-4.2c-1.5,0-2.8,0.9-5.5,2.8c-2,1.5-4,3.2-5.9,5.1c-2.3,2.3-4.7,5.7-7.4,10.4
	c-3.2,4.7-7.5,10.3-12.6,16.4l-16.8,20.5c-5.5,6.7-10.8,12.7-15.5,17.7c-6.3,6.7-8.1,7.6-8.2,7.6c-0.2,0.1-1.6,0.5-6.5-0.2
	c-3.9-0.5-7.5-1.5-10.8-3.1c-3.3-1.4-6-3.7-8.1-6.9c-1.9-2.9-2-6.9-0.4-12.3c1.9-6.3,4-15.3,6.2-27.4c2.2-11.5,4.9-24.1,8-37.5
	c3.3-13.7,6.8-26.7,10.8-39.6c4-12.8,8.7-24.2,14-33.7l-5.5-3.2c-4.8,7.8-9.1,15.2-13.3,22.8c-2.2,4.1-4.6,8.7-7.3,13.7
	c-2,3.8-4.2,7.8-6.5,12.1c-5.1,9.5-11,20.7-17.5,33.2c-12.9,24.8-23.7,43.9-33,58.5c-13,20.4-15.4,26.3-16.1,29.1l-0.1,0.4
	c-0.3,2.1-0.6,3.2-0.8,3.8c-1.3,0.5-3.3,1.4-6.9,3.3c-6.4,3.2-7.7,5.2-8.1,5.8c-0.2,0.2-0.9,1.1-3.3,2.1c-1.9,0.8-4.1,1.4-7,2
	c-0.2,0-2.3,0.2-6.7-5.4c-2.2-2.8-4.8-4.8-7.8-6.1c-2.1-0.9-3.8-2.1-5.4-3.9c-1-1.2-2.4-3.6-2.8-8.5c-0.4-4.1,0.5-10.3,2.9-18.9
	c2.3-8.8,5.3-18.7,9-30.4c3.8-11.4,7-22,9.9-31.8c3.1-10.4,5.2-18.7,6.6-25.5c1.9-9,1.5-13.2-1.4-15l-0.3-0.2
	c-5.6-2.8-10.5-4.4-14.7-4.6c-0.2-1.1-0.1-2.3,0.2-3.4c0.8-1.3,4-3.9,5.2-4.1l0.1,0c8.7,1,16.4,2.7,23,5c6.4,2.2,11.4,5.5,14.9,9.8
	c3.3,4.2,4.3,9.7,2.9,16.8c-1.4,8.3-2.7,13.8-3.5,16.9l-18.5,74l12-22.1c8.3-15.2,16.9-30.6,25.6-46c6.7-12.6,13.8-25,21-37.1
	c7.3-12.1,12.9-21.6,16.8-28.5c3.7-6.6,9-14.2,15.5-22.7c6-7.8,12.5-15.7,19.2-23.5c6.2-7.2,11.8-13.3,16.6-18.1
	c3.8-3.8,5.6-5.1,6.3-5.5c2,0.5,3.7,1.2,5.2,2.3l0.1,0.1c0,0,0,0,0,0c-0.1,0.1-0.1,0.1-0.2,0.2l-7.9,7.9c-2.5,0.4-4.4,1.9-5.1,4.1
	c-1,2.1-0.7,3.7,0.8,4.8c0.2,0.1,1.2,0.8,2.5,0.6c-0.3,1.1-0.1,2,0.1,2.4c1,2.5,4,2.5,5.6,2.5h0.4l0.4-0.1c0.7-0.2,1.5-0.4,2.2-0.7
	l0.2,0.2c0.9,0.6,1.4,1.5,1.7,2.6c0.4,1.6,1.2,3.5,3,4.3c0.9,0.4,1.9,0.5,2.9,0.2c0.4,0,0.7-0.1,1-0.2c3.8,3.4,5.9,6.6,6.1,9.2
	c-0.5,2.3-2.4,8-6.1,17.8c-3.7,10.3-7.9,21.3-12,31.7c-2.1,5.5-4.2,10.8-6.3,16c-2.1,5.4-4.2,10.7-6.2,15.7
	c-4.1,10.3-6.2,16.6-6.7,19.9c-1.2,5.2-2.7,10.6-4.3,16.1c-2,6.9-3.2,11-3.6,13.1l6.1,1.7c0.3-0.7,2-3.5,8.3-12.7
	c5.7-8,11.3-15.8,17.5-24c5.3-7.2,11.1-14.5,18.4-22.8c8.1-8.9,10.8-9.2,11.1-9.2l0.3,0c5.3-0.5,10.7,0.6,16.6,3.1
	c5.4,2.3,8.6,6.2,9.8,11.8c0.5,2.7,0.6,7.3,0.3,13.5c-0.2,5.9-0.7,12.4-1.4,19.8c-0.8,6.9-1.2,13.2-1.2,18.9c0,5.1,0.5,10.5,3.9,12
	c2.4,1.4,6.1,1.2,11.9-0.6c5.6-1.8,11.5-4.5,17.4-8c6.7-4,13.1-8.9,19.1-14.7c5.3-5.1,10-11,14.2-18.2
	C746,415.2,745.5,416.1,745.1,416.7z M870.2,438.3c0-9.9-0.1-19.9-0.1-29.8c0-9.5,0-19,0-28.5c0.1-23.4,0.1-47.7-0.2-71.5
	c-0.1-8.6-1.6-17-4.2-24.3c-7.2-20-21.6-35.1-44.2-46.3c-24.3-12.1-48.6-25.1-72.1-37.6c-6.4-3.4-12.9-6.9-19.3-10.3
	c-9.8-5.2-19.7-10.5-29.3-15.7c-17.6-9.5-35.9-19.4-54-28.6c-11.5-6-22.7-10.2-33.1-12.4c-22.7-4.8-45.8-0.1-70.6,14.3
	c-14.1,8.2-29,15.9-43.3,23.5c-3.8,2-7.7,4-11.5,6.1c-11.3,6-22.9,12-34.1,17.8c-11.2,5.8-22.8,11.8-34.1,17.9
	c-15.3,8.1-30.8,16.4-45.7,24.6l-8.1,4.4c-28.3,15.4-42.8,38.3-42.9,68.1c-0.3,66.5-0.1,133.7,0,198.8c0,4.7,0.2,11.8,2.2,18.1
	c7,22.8,20.9,39.6,41.2,49.8c20,10.2,40.2,21,59.7,31.4c5.6,3,11.2,6,16.9,9c10.9,5.7,21.8,11.5,32.7,17.2
	c24.9,13,50.7,26.5,75.7,40.3c14.5,7.9,29.4,11.9,44.4,11.9c9.2,0,18.5-1.5,27.8-4.5c10.8-3.5,21.1-9,31.1-14.3
	c2.7-1.4,5.4-2.9,8.1-4.2c11.2-5.8,22.6-12,33.6-17.9c6.8-3.6,13.5-7.3,20.3-10.9l72.2-38c5.9-3.1,11.8-6.2,17.6-9.3
	c5.8-3.1,11.7-6.2,17.5-9.2c30-15.3,45.4-38.8,45.6-69.7C870.3,484.6,870.2,461.1,870.2,438.3z M863.6,507.9
	c-0.2,28.8-14,49.8-42.2,64.1c-5.9,3.1-11.7,6.2-17.6,9.3c-5.9,3.1-11.7,6.2-17.6,9.3l-72.2,38c-6.8,3.6-13.6,7.3-20.4,10.9
	c-10.9,5.9-22.3,12-33.5,17.8c-2.7,1.4-5.4,2.8-8.1,4.3c-9.7,5.1-19.7,10.5-30,13.8c-22.7,7.3-45.3,5-67.1-6.9
	c-25.1-13.8-50.8-27.3-75.8-40.3c-10.9-5.7-21.8-11.4-32.7-17.1c-5.6-3-11.2-6-16.8-9c-19.6-10.5-39.8-21.3-59.9-31.5
	c-19-9.5-31.4-24.6-37.9-46c-1.7-5.5-1.9-11.9-1.9-16.2c-0.1-65-0.3-132.3,0-198.7c0.1-27.7,13-48.1,39.5-62.5l8.1-4.4
	c14.9-8.1,30.3-16.5,45.6-24.5c11.3-6,22.9-12,34.1-17.8c11.2-5.8,22.8-11.8,34.1-17.9c3.8-2,7.7-4,11.5-6
	c14.4-7.5,29.3-15.3,43.5-23.6c17.6-10.2,34.1-15.2,50.2-15.2c5.3,0,10.6,0.6,15.8,1.7c9.8,2.1,20.4,6.1,31.5,11.9
	c18.1,9.2,36.3,19,53.9,28.5c9.6,5.2,19.5,10.5,29.3,15.7c6.4,3.4,12.9,6.9,19.3,10.3c23.6,12.6,47.9,25.6,72.3,37.7
	c21.3,10.6,34.3,24.2,41,42.7c2.3,6.7,3.7,14.4,3.8,22.3c0.3,23.8,0.2,48,0.2,71.4c0,9.5,0,19,0,28.5c0,10,0,19.9,0.1,29.8
	C863.8,461.1,863.9,484.6,863.6,507.9z M742.8,402.8l-2.1,3.7c-4.5,8.2-9.5,14.9-15.1,20.3c-5.7,5.4-11.7,10.1-18,13.8
	c-5.5,3.3-10.9,5.8-16.1,7.4c-4.9,1.5-6.4,1.2-6.7,1.2l-0.1-0.1c-0.2-0.6-0.6-2.3-0.6-6.3c0-5.4,0.4-11.6,1.1-18.2
	c0.7-7.6,1.2-14.2,1.4-20.3c0.3-6.8,0.1-11.7-0.4-15c-1.6-7.7-6.3-13.4-13.5-16.5c-6.9-2.9-13.3-4.1-19.6-3.6
	c-3.8,0.1-8.7,3.6-15.7,11.3c-7.4,8.5-13.3,15.9-18.7,23.2c-5.3,7-10.2,13.8-15.1,20.6c0.9-3.3,1.7-6.5,2.4-9.6l0.1-0.3
	c0.3-2.6,2.5-8.9,6.3-18.6c2-5.1,4-10.3,6.2-15.7c2-5.2,4.1-10.5,6.3-16c4.1-10.4,8.3-21.5,12-31.8c3.5-9.2,5.8-16.1,6.4-19l0.1-0.3
	v-0.3c0-5-3.2-10.2-9.9-15.6l-0.9-0.7h-1.2c-0.6,0-1.2,0.1-1.6,0.2c-0.7-2.1-2-3.9-3.7-5.2l-0.9-0.9l-0.4-0.2
	c-0.8-0.5-2.7-1.5-4.5-0.5l-0.1,0.1c-0.3-0.8-0.7-1.5-1.2-2l8.5-8.6c2.1-2.1,2.4-4.1,2.3-5.4c-0.1-1.3-0.8-3.1-3.1-4.6
	c-2.3-1.6-4.8-2.7-7.7-3.3c-2.5-1-5.5,0.9-12,7.3c-4.9,4.9-10.6,11.1-16.9,18.5c-6.8,7.9-13.3,15.9-19.4,23.8
	c-6.7,8.7-12.1,16.5-16,23.4c-3.9,6.8-9.5,16.3-16.7,28.3c-7.3,12.1-14.4,24.7-21.2,37.3c-4.6,8.1-9.2,16.2-13.7,24.4l6.4-25.7
	c0.8-3.2,2.1-8.9,3.6-17.4c1.7-8.9,0.3-16.2-4.2-21.9c-4.3-5.3-10.3-9.3-17.8-11.9c-7-2.4-15.2-4.2-24.3-5.3
	c-4.8-0.8-11.4,5.6-12.2,8.4c-0.7,2.1-0.8,4.4-0.5,6.5c0.7,4.8,3.7,5.3,5,5.3c3.2,0,7.4,1.2,12.4,3.6c0.1,0.8,0.2,3.1-0.9,8.5
	c-1.3,6.6-3.5,14.8-6.5,25c-2.9,9.8-6.1,20.3-9.8,31.7c-3.8,11.8-6.8,21.9-9.1,30.7c-2.6,9.5-3.6,16.3-3,21.2
	c0.4,5.2,1.9,9.3,4.4,12.1c2.2,2.5,4.8,4.3,7.7,5.6c2,0.8,3.7,2.2,5.3,4.1c4.1,5.2,7.9,7.8,11.5,7.8c0.5,0,1,0,1.4-0.1
	c3.4-0.7,6-1.4,8.3-2.4c2.9-1.2,5-2.7,6.1-4.5c0,0,0.9-1.3,5.7-3.6c1.4-0.7,5.5-2.8,6.6-3.1c3.1-0.6,4-4.5,4.6-8.6
	c0.7-2.6,4-9.4,15.3-27.1c9.4-14.7,20.3-34,33.3-59c6.6-12.5,12.5-23.6,17.5-33.1c1.5-2.8,2.9-5.5,4.3-8.1
	c-3,10.2-5.8,20.6-8.3,31.4c-3.2,13.4-5.9,26.1-8.1,37.8c-2.2,11.7-4.2,20.7-6.1,26.7c-2.2,7.3-1.8,13.1,1.2,17.6
	c2.8,4.2,6.4,7.3,10.8,9.2c3.8,1.8,8.1,3,12.6,3.6c4.6,0.6,7.6,0.6,9.6-0.2c0.9-0.3,2.9-1.1,10.7-9.3c4.8-5.2,10.1-11.3,15.7-18.1
	l16.8-20.5c5.2-6.3,9.7-12.2,13-17l0.1-0.2c2.3-4.2,4.5-7.2,6.4-9.1c0.8-0.8,1.6-1.5,2.4-2.3c-0.1,1.5-0.2,3.1-0.2,4.7
	c0,4.5,0.5,9.2,1.5,14.1c1.1,5.6,3.2,11.6,6.1,17.8c4.1,9.4,8.9,15.7,14.7,19.3c4.3,2.8,8.8,4.4,13.6,5l-8.7,8.7l17.7-8.8
	c0.6-0.3,0.8-0.4,0.9-0.4c0.7,0,1.4-0.2,2-0.5c0.3-0.1,0.7-0.2,1.1-0.4c1.3-0.2,2.7-0.7,4.2-1.4c1.3-0.3,2.3-1.3,2.8-2.5l0.9,0.7
	l1.9-1.9c1.3-1.3,1.9-2.1,2.2-2.6c0.1-0.1,0.2-0.2,0.6-0.3l1.8-0.9v-2c0-0.7,0.1-1.2,0.2-1.5c0.3-1,0.5-2,0.5-3.2
	c0.1-0.2,0.1-0.3,0.1-0.4c1.2,0.1,2.9-0.1,3.8-1.9h1.9l1-1.3c5.1-7,10.9-14.2,17.8-22.1c6.6-7.6,10.4-12.7,11.7-15.6
	c1.2-2.2,2.4-6.3-2-11L742.8,402.8z M745.1,416.7l-0.2,0.4c-0.4,1-2.3,4.4-10.7,14.1c-6.5,7.6-12.1,14.5-17.1,21.2
	c-1.7,0.1-3.7,0.5-4.7,2c-1.6,0.5-3.4,1.9-4.2,5.7l-0.1,0.3v0.3c0,0.7-0.1,1.2-0.2,1.5c-0.2,0.6-0.3,1.2-0.4,1.7
	c-0.6,0.4-1,0.9-1.4,1.5l-0.1,0.1c-0.7-0.1-1.3-0.1-1.9,0c-1,0.2-1.8,0.8-2.4,1.5c-1.4-0.1-2.7,0.4-3.7,1.6
	c-0.6,0.6-1.1,1.2-1.5,1.9c-0.6,0-1-0.1-1.4-0.2c-1.9-0.6-3.7-0.2-5.1,1.2c0,0-0.1,0-0.1,0.1c-0.4,0.1-0.7,0.3-1,0.5
	c-4.4-0.2-8.7-1.6-12.8-4.2c-4.6-2.9-8.7-8.4-12.2-16.6c-2.7-5.8-4.6-11.3-5.6-16.4c-0.9-4.5-1.3-8.8-1.3-12.8
	c0-3.9,0.4-7.7,1.3-10.8l1.1-4h-4.2c-1.5,0-2.8,0.9-5.5,2.8c-2,1.5-4,3.2-5.9,5.1c-2.3,2.3-4.7,5.7-7.4,10.4
	c-3.2,4.7-7.5,10.3-12.6,16.4l-16.8,20.5c-5.5,6.7-10.8,12.7-15.5,17.7c-6.3,6.7-8.1,7.6-8.2,7.6c-0.2,0.1-1.6,0.5-6.5-0.2
	c-3.9-0.5-7.5-1.5-10.8-3.1c-3.3-1.4-6-3.7-8.1-6.9c-1.9-2.9-2-6.9-0.4-12.3c1.9-6.3,4-15.3,6.2-27.4c2.2-11.5,4.9-24.1,8-37.5
	c3.3-13.7,6.8-26.7,10.8-39.6c4-12.8,8.7-24.2,14-33.7l-5.5-3.2c-4.8,7.8-9.1,15.2-13.3,22.8c-2.2,4.1-4.6,8.7-7.3,13.7
	c-2,3.8-4.2,7.8-6.5,12.1c-5.1,9.5-11,20.7-17.5,33.2c-12.9,24.8-23.7,43.9-33,58.5c-13,20.4-15.4,26.3-16.1,29.1l-0.1,0.4
	c-0.3,2.1-0.6,3.2-0.8,3.8c-1.3,0.5-3.3,1.4-6.9,3.3c-6.4,3.2-7.7,5.2-8.1,5.8c-0.2,0.2-0.9,1.1-3.3,2.1c-1.9,0.8-4.1,1.4-7,2
	c-0.2,0-2.3,0.2-6.7-5.4c-2.2-2.8-4.8-4.8-7.8-6.1c-2.1-0.9-3.8-2.1-5.4-3.9c-1-1.2-2.4-3.6-2.8-8.5c-0.4-4.1,0.5-10.3,2.9-18.9
	c2.3-8.8,5.3-18.7,9-30.4c3.8-11.4,7-22,9.9-31.8c3.1-10.4,5.2-18.7,6.6-25.5c1.9-9,1.5-13.2-1.4-15l-0.3-0.2
	c-5.6-2.8-10.5-4.4-14.7-4.6c-0.2-1.1-0.1-2.3,0.2-3.4c0.8-1.3,4-3.9,5.2-4.1l0.1,0c8.7,1,16.4,2.7,23,5c6.4,2.2,11.4,5.5,14.9,9.8
	c3.3,4.2,4.3,9.7,2.9,16.8c-1.4,8.3-2.7,13.8-3.5,16.9l-18.5,74l12-22.1c8.3-15.2,16.9-30.6,25.6-46c6.7-12.6,13.8-25,21-37.1
	c7.3-12.1,12.9-21.6,16.8-28.5c3.7-6.6,9-14.2,15.5-22.7c6-7.8,12.5-15.7,19.2-23.5c6.2-7.2,11.8-13.3,16.6-18.1
	c3.8-3.8,5.6-5.1,6.3-5.5c2,0.5,3.7,1.2,5.2,2.3l0.1,0.1c0,0,0,0,0,0c-0.1,0.1-0.1,0.1-0.2,0.2l-7.9,7.9c-2.5,0.4-4.4,1.9-5.1,4.1
	c-1,2.1-0.7,3.7,0.8,4.8c0.2,0.1,1.2,0.8,2.5,0.6c-0.3,1.1-0.1,2,0.1,2.4c1,2.5,4,2.5,5.6,2.5h0.4l0.4-0.1c0.7-0.2,1.5-0.4,2.2-0.7
	l0.2,0.2c0.9,0.6,1.4,1.5,1.7,2.6c0.4,1.6,1.2,3.5,3,4.3c0.9,0.4,1.9,0.5,2.9,0.2c0.4,0,0.7-0.1,1-0.2c3.8,3.4,5.9,6.6,6.1,9.2
	c-0.5,2.3-2.4,8-6.1,17.8c-3.7,10.3-7.9,21.3-12,31.7c-2.1,5.5-4.2,10.8-6.3,16c-2.1,5.4-4.2,10.7-6.2,15.7
	c-4.1,10.3-6.2,16.6-6.7,19.9c-1.2,5.2-2.7,10.6-4.3,16.1c-2,6.9-3.2,11-3.6,13.1l6.1,1.7c0.3-0.7,2-3.5,8.3-12.7
	c5.7-8,11.3-15.8,17.5-24c5.3-7.2,11.1-14.5,18.4-22.8c8.1-8.9,10.8-9.2,11.1-9.2l0.3,0c5.3-0.5,10.7,0.6,16.6,3.1
	c5.4,2.3,8.6,6.2,9.8,11.8c0.5,2.7,0.6,7.3,0.3,13.5c-0.2,5.9-0.7,12.4-1.4,19.8c-0.8,6.9-1.2,13.2-1.2,18.9c0,5.1,0.5,10.5,3.9,12
	c2.4,1.4,6.1,1.2,11.9-0.6c5.6-1.8,11.5-4.5,17.4-8c6.7-4,13.1-8.9,19.1-14.7c5.3-5.1,10-11,14.2-18.2
	C746,415.2,745.5,416.1,745.1,416.7z"/>
</svg>
