<svg xmlns="http://www.w3.org/2000/svg" width="348.027" height="52.762" viewBox="0 0 348.027 52.762">
  <path id="sig" d="M202.858,467.48c1.374-.258,2.791-.472,4.165-.73,6.311-1.159,12.58-2.318,18.891-3.478a9.678,9.678,0,0,1,2.49-.043,1.01,1.01,0,0,1,.515,1.889,9.92,9.92,0,0,0-2.4,1.889c2.19-.558,4.422-1.073,6.612-1.674,3.306-.945,6.612-1.889,9.918-2.962a2.8,2.8,0,0,0,1.717-1.546c1.417-5.581,5.066-9.1,10.089-11.463a12.708,12.708,0,0,1,4.165-1.46,3.568,3.568,0,0,1,2.919,1.245c.386.6-.086,2.361-.73,2.92-4.508,3.907-9.016,7.9-14.683,10.175.515,2.576,2.275,3.521,4.336,4.122,3.392.944,6.7,0,10-.687,1.76-.343,3.478-.773,5.238-1.116s3.349-.73,4.422-2.447a6.055,6.055,0,0,1,2.962-2.147c3.349-1.288,6.526-3.177,10.3-3.263,1.8-.043,3.134.472,3.735,2.748-2.233.816-4.422,1.76-6.7,2.49-2.92.945-5.882,1.8-8.844,2.662-1.5.429-1.717,1.417-1.03,2.576a10.734,10.734,0,0,0,2.147,2.791,30.9,30.9,0,0,0,13.481,6.14,2.91,2.91,0,0,0,1.932-.644A64.4,64.4,0,0,1,317.32,464.9c1.889-.258,3.778-.3,5.667-.386,1.159-.043,2.147.258,2.147,1.846,5.152-.258,10.175-.687,15.2-.773,10.175-.215,20.308-.3,30.483-.3,5.238,0,10.476.472,15.671.3A72.813,72.813,0,0,0,399.452,464c7.17-1.546,14.3-1.331,21.467-.644,4.379.429,8.716,1.159,13.095,1.674,1.846.215,3.735.086,5.624.343a19.344,19.344,0,0,1,3.177,1.03c-1.846,2.533-3.993,1.46-5.753,1.245-4.937-.6-9.832-1.631-14.769-2.275-7.9-1.073-15.757-1.116-23.528.859-5.882,1.5-11.85,1.546-17.86,1.288-8.587-.344-17.216-.73-25.8-.644-9.617.129-19.191.773-28.809,1.159-1.76.086-3.864.386-5.238-.386-4.379-2.361-8.329-.3-12.365.6-6.311,1.374-12.021,4.208-17.56,7.428a11.513,11.513,0,0,0-1.288.987c2.576.9,4.98,1.632,7.3,2.619a9.869,9.869,0,0,1,3.091,2.018,2.811,2.811,0,0,1,.086,4.036,19.854,19.854,0,0,1-8.372,6.4c-3.563,1.46-7.213,2.791-11.163,2.49-2.662-.172-3.778-1.331-3.263-3.907a20.766,20.766,0,0,1,6.955-11.506c.386-.344.773-.687,1.331-1.159-2.533-.859-5.023-1.5-7.3-2.533a36.93,36.93,0,0,1-6.268-3.692,8.117,8.117,0,0,1-3.478-5.882c-2.533.558-4.894,1.116-7.342,1.589-3.478.644-6.869,1.674-10.519.859a8.424,8.424,0,0,1-6.1-4.637c-3.306,1.03-6.655,2.19-10.047,3.048-4.122,1.073-8.286,1.975-12.451,2.834-.558.129-1.245-.6-1.889-.9a6.424,6.424,0,0,1,1.331-1.5,29.272,29.272,0,0,1,3.091-1.5,3.162,3.162,0,0,0-.172-.6c-2.318.344-4.723.558-7,1.03-4.809.987-9.574,2.147-14.383,3.22a2.724,2.724,0,0,1-1.546.043c-.6-.215-1.5-.73-1.546-1.159a2.521,2.521,0,0,1,.945-1.846,14.823,14.823,0,0,1,3.005-1.417,1.525,1.525,0,0,1-.086-.429c-1.5.258-3.005.429-4.508.773-.258.043-.515.773-.472,1.159.73,6.4-.773,12.494-3.005,18.376a6.984,6.984,0,0,1-2.275,2.791c2.1-7.213,4.165-14.34,3.649-22.154-2.834.558-5.453,1.073-8.072,1.546-5.367.9-10.733,1.846-16.1,2.662a7.852,7.852,0,0,1-3.005-.172c-.687-.172-1.245-.816-2.275-1.5.945-.258,1.417-.558,1.674-.472,3.564,1.288,7.084.343,10.562-.215,5.5-.9,10.948-2.061,16.615-3.177-.987-5.839-2.576-11.163-7.857-14.512a39.492,39.492,0,0,0-18.075-5.882,64.462,64.462,0,0,0-25.46,2.662,69.556,69.556,0,0,0-14.426,6.354,70.785,70.785,0,0,0-12.837,9.66,2.577,2.577,0,0,0-.9,3.134c1.374,3.435.258,6.14-2.447,8.329-.386.3-1.288.515-1.589.258-.644-.429-1.46-1.2-1.417-1.8a49.636,49.636,0,0,1,1.073-5.5,3.938,3.938,0,0,1,.558-.9c1.674-2.619.816-4.25-2.361-5.023-4.165-.987-7.642.472-10.691,2.962-1.5,1.2-2.49,3.048-3.606,4.68-.215.344-.043.9-.086,1.374-.086.558-.258,1.116-.386,1.674-.558-.515-1.631-1.159-1.546-1.546.343-1.589.644-3.392,1.631-4.594,3.907-4.637,8.8-7.256,15.027-5.925,1.717.386,3.22,1.717,4.723,2.533,3.649-2.791,7.385-6.054,11.506-8.673,10.39-6.7,21.767-10.905,34.218-11.463,8.544-.386,16.916.515,24.773,4.422A19.48,19.48,0,0,1,197.749,460.4a3.863,3.863,0,0,0,.129.687c.644,2.49.644,2.4,3.263,2.061,2.662-.3,5.324-.429,7.986-.515.558,0,1.116.644,1.674.987-.472.386-.859.945-1.417,1.116-2.233.73-4.465,1.331-6.7,1.975A6.416,6.416,0,0,1,202.858,467.48Zm76.379,21.682c.086,3.263.73,3.864,3.177,3.435,5.925-.987,11.335-2.962,15.5-7.685,1.76-2.018,1.8-3.392-.73-4.336-2.834-1.03-5.753-1.846-8.673-2.662a1.57,1.57,0,0,0-1.2.386,51.1,51.1,0,0,0-5.581,5.839A24.612,24.612,0,0,0,279.237,489.162Zm-18.547-38.6c-5.324-1.674-13.782,4.723-13.911,10.218A49.327,49.327,0,0,0,260.69,450.564Zm11.592,11.893c.086.258.172.472.258.73,3.735-1.2,7.428-2.4,11.163-3.606-.043-.129-.086-.3-.129-.429A20.645,20.645,0,0,0,272.282,462.457Zm-156.751,2.791c-2.233,2.576-2.834,5.324-1.417,6.612C116.776,469.326,117.076,468.038,115.531,465.248Z" transform="translate(-94.789 -441.509)" fill="#050505"/>
</svg>
